# xmcd
#
# Track frame offsets:
#	150
#	10774
#	20116
#	30392
#	41755
#	51443
#	60235
#	71764
#	80872
#	89639
#	98952
#	108629
#	120240
#	132389
#	142554
#	154238
#	164413
#	176413
#	186181
#	195397
#	205973
#	217270
#	233555
#	243542
#	257486
#	267114
#	276708
#	287898
#	299677
#	310963
#	320716
#	329758
#	342600
#	351491
#
# Disc length: 4858 seconds
# Revision: 4
# Processed by: cddbd v1.5.2PL0 Copyright (c) Steve Scherf et al.
# Submitted via: dBpowerAMP V12.0
#
DISCID=2312f822
DTITLE=Buck Owens - Open Up Your Heart: The Buck Owens and the Buckaroos Recordings 1965-1968, CD04 - CD07
DYEAR=2010
DGENRE=Country
TTITLE0=Heartbreak Mountain
TTITLE1=It Takes People Like You (To Make People Like Me)
TTITLE2=Kern County Breakdown
TTITLE3=My Baby's Comin' Home
TTITLE4=Chicken Pickin'
TTITLE5=Free and Easy
TTITLE6=Tom's Waltz
TTITLE7=Buckersfield Breakdown
TTITLE8=Love's Gonna Come A-Knockin'
TTITLE9=I'm A-Comin' Back Home to You
TTITLE10=Apple Jack
TTITLE11=Foolish Notion
TTITLE12=Night Time Is Cry Time
TTITLE13=How Long Will My Baby Be Gone
TTITLE14=Swingin' Doors
TTITLE15=Long, Long Ago
TTITLE16=Sing a Happy Song
TTITLE17=Let the World Keep on a Turnin'
TTITLE18=The Girl on Sugar Pie Lane
TTITLE19=We Were Made for Each Other
TTITLE20=Happy Times Are Here Again
TTITLE21=Sweet Rosie Jones
TTITLE22=The Heartaches Have Just Started
TTITLE23=You Mother's Prayer
TTITLE24=That Sunday Feeling
TTITLE25=Hurtin' Like I've Never Hurt Before
TTITLE26=You'll Never Miss the Water (Till the Well Runs Dry)
TTITLE27=There's Gotta Be Some Changes Made
TTITLE28=If I Had Three Wishes
TTITLE29=Hello California
TTITLE30=Highway Man
TTITLE31=I Can't Stop My Loving You
TTITLE32=Chapparal
TTITLE33=You Bring Out the Best In Me
EXTD=
EXTT0=
EXTT1=
EXTT2=
EXTT3=
EXTT4=
EXTT5=
EXTT6=
EXTT7=
EXTT8=
EXTT9=
EXTT10=
EXTT11=
EXTT12=
EXTT13=
EXTT14=
EXTT15=
EXTT16=
EXTT17=
EXTT18=
EXTT19=
EXTT20=
EXTT21=
EXTT22=
EXTT23=
EXTT24=
EXTT25=
EXTT26=
EXTT27=
EXTT28=
EXTT29=
EXTT30=
EXTT31=
EXTT32=
EXTT33=
PLAYORDER=
